<svg xmlns="http://www.w3.org/2000/svg" xmlns:xlink="http://www.w3.org/1999/xlink" width="1080" zoomAndPan="magnify" viewBox="0 0 810 809.999993" height="1080" preserveAspectRatio="xMidYMid meet" version="1.0"><defs><g/></defs><g fill="#000000" fill-opacity="1"><g transform="translate(0.0000035, 269.089025)"><g><path d="M 124.050781 -176.523438 C 124.050781 -201.816406 110.59375 -215.269531 85.300781 -215.269531 L 17.761719 -215.269531 C 15.070312 -215.269531 13.453125 -213.65625 13.453125 -210.964844 L 13.453125 -4.304688 C 13.453125 -1.613281 15.070312 0 17.761719 0 L 45.746094 0 C 48.4375 0 50.050781 -1.613281 50.050781 -4.304688 L 50.050781 -72.117188 L 68.617188 -72.117188 L 86.648438 -3.765625 C 87.183594 -1.34375 88.53125 0 91.222656 0 L 119.207031 0 C 122.167969 0 123.78125 -1.613281 122.972656 -4.84375 L 104.40625 -75.34375 C 117.324219 -80.996094 124.050781 -92.835938 124.050781 -110.863281 Z M 50.050781 -107.636719 L 50.050781 -179.75 L 76.691406 -179.75 C 83.6875 -179.75 87.453125 -175.984375 87.453125 -168.988281 L 87.453125 -118.398438 C 87.453125 -111.402344 83.6875 -107.636719 76.691406 -107.636719 Z M 50.050781 -107.636719 "/></g></g></g><g fill="#000000" fill-opacity="1"><g transform="translate(137.504397, 269.089025)"><g><path d="M 120.820312 -210.964844 C 120.820312 -213.65625 119.746094 -215.269531 116.515625 -215.269531 L 17.492188 -215.269531 C 15.070312 -215.269531 13.453125 -213.65625 13.453125 -210.964844 L 13.453125 -4.304688 C 13.453125 -1.613281 15.070312 0 17.492188 0 L 116.515625 0 C 119.746094 0 120.820312 -1.613281 120.820312 -4.304688 L 120.820312 -31.214844 C 120.820312 -34.175781 119.746094 -35.519531 116.515625 -35.519531 L 49.242188 -35.519531 L 49.242188 -89.875 L 100.640625 -89.875 C 103.332031 -89.875 104.945312 -91.492188 104.945312 -94.449219 L 104.945312 -121.089844 C 104.945312 -124.050781 103.332031 -125.664062 100.640625 -125.664062 L 49.242188 -125.664062 L 49.242188 -179.480469 L 116.515625 -179.480469 C 119.746094 -179.480469 120.820312 -181.367188 120.820312 -184.058594 Z M 120.820312 -210.964844 "/></g></g></g><g fill="#000000" fill-opacity="1"><g transform="translate(271.779649, 269.089025)"><g><path d="M 121.089844 -210.964844 C 121.089844 -213.65625 119.476562 -215.269531 116.785156 -215.269531 L 17.761719 -215.269531 C 14.800781 -215.269531 13.453125 -213.65625 13.453125 -210.964844 L 13.453125 -4.304688 C 13.453125 -1.613281 14.800781 0 17.761719 0 L 45.746094 0 C 48.4375 0 50.050781 -1.613281 50.050781 -4.304688 L 50.050781 -90.144531 L 100.640625 -90.144531 C 103.332031 -90.144531 104.945312 -91.492188 104.945312 -94.449219 L 104.945312 -121.359375 C 104.945312 -124.050781 103.332031 -125.664062 100.640625 -125.664062 L 50.050781 -125.664062 L 50.050781 -179.75 L 116.785156 -179.75 C 119.476562 -179.75 121.089844 -181.367188 121.089844 -184.058594 Z M 121.089844 -210.964844 "/></g></g></g><g fill="#000000" fill-opacity="1"><g transform="translate(406.32405, 269.089025)"><g><path d="M 13.453125 -38.75 C 13.453125 -13.453125 26.910156 0 52.203125 0 L 82.339844 0 C 107.636719 0 121.089844 -13.453125 121.089844 -38.75 L 121.089844 -176.523438 C 121.089844 -201.816406 107.636719 -215.269531 82.339844 -215.269531 L 52.203125 -215.269531 C 26.910156 -215.269531 13.453125 -201.816406 13.453125 -176.523438 Z M 60.007812 -34.710938 C 53.011719 -34.710938 49.242188 -38.210938 49.242188 -45.476562 L 49.242188 -169.796875 C 49.242188 -176.792969 53.011719 -180.558594 60.007812 -180.558594 L 75.613281 -180.558594 C 82.609375 -180.558594 86.378906 -176.792969 86.378906 -169.796875 L 86.378906 -45.476562 C 86.378906 -38.210938 82.609375 -34.710938 75.613281 -34.710938 Z M 60.007812 -34.710938 "/></g></g></g><g fill="#000000" fill-opacity="1"><g transform="translate(540.868451, 269.089025)"><g><path d="M 121.359375 -176.523438 C 121.359375 -201.816406 107.636719 -215.269531 82.339844 -215.269531 L 17.761719 -215.269531 C 15.070312 -215.269531 13.453125 -213.925781 13.453125 -210.964844 L 13.453125 -4.304688 C 13.453125 -1.613281 15.070312 0 17.761719 0 L 82.339844 0 C 107.636719 0 121.359375 -13.453125 121.359375 -38.75 L 121.359375 -88.261719 C 121.359375 -98.21875 114.09375 -105.753906 104.40625 -107.367188 L 104.40625 -107.90625 C 114.09375 -109.519531 121.359375 -117.054688 121.359375 -127.011719 Z M 85.570312 -135.890625 C 85.570312 -129.164062 81.804688 -125.394531 74.808594 -125.394531 L 50.320312 -125.394531 L 50.320312 -179.75 L 74.808594 -179.75 C 82.070312 -179.75 85.570312 -175.984375 85.570312 -168.988281 Z M 85.570312 -46.285156 C 85.570312 -39.019531 81.804688 -35.519531 74.808594 -35.519531 L 50.320312 -35.519531 L 50.320312 -89.875 L 74.808594 -89.875 C 82.070312 -89.875 85.570312 -86.109375 85.570312 -79.113281 Z M 85.570312 -46.285156 "/></g></g></g><g fill="#000000" fill-opacity="1"><g transform="translate(675.681894, 269.089025)"><g><path d="M 120.820312 -210.964844 C 120.820312 -213.65625 119.746094 -215.269531 116.515625 -215.269531 L 17.492188 -215.269531 C 15.070312 -215.269531 13.453125 -213.65625 13.453125 -210.964844 L 13.453125 -4.304688 C 13.453125 -1.613281 15.070312 0 17.492188 0 L 116.515625 0 C 119.746094 0 120.820312 -1.613281 120.820312 -4.304688 L 120.820312 -31.214844 C 120.820312 -34.175781 119.746094 -35.519531 116.515625 -35.519531 L 49.242188 -35.519531 L 49.242188 -89.875 L 100.640625 -89.875 C 103.332031 -89.875 104.945312 -91.492188 104.945312 -94.449219 L 104.945312 -121.089844 C 104.945312 -124.050781 103.332031 -125.664062 100.640625 -125.664062 L 49.242188 -125.664062 L 49.242188 -179.480469 L 116.515625 -179.480469 C 119.746094 -179.480469 120.820312 -181.367188 120.820312 -184.058594 Z M 120.820312 -210.964844 "/></g></g></g></svg>